<svg id="Layer_1" data-name="Layer 1" xmlns="http://www.w3.org/2000/svg" viewBox="0 0 327.68 91.94"><defs><style>.cls-1{fill:#f9a42b;}.cls-2{fill:white;}</style></defs><path class="cls-1" d="M63.14,52.79h12.6V91.65a58.9,58.9,0,0,1-.8,9.95,28.17,28.17,0,0,1-2.85,8.48A24.61,24.61,0,0,1,66.65,117,31.07,31.07,0,0,1,58,122.17l-5.4-8.63a32.07,32.07,0,0,0,4.74-2.93,12.35,12.35,0,0,0,3.27-3.84A19,19,0,0,0,62.52,101a50.87,50.87,0,0,0,.62-8.68Zm6.44-9.67a6.63,6.63,0,0,1-5.07-1.85,6.4,6.4,0,0,1-1.75-4.59,6.32,6.32,0,0,1,1.8-4.6,6.69,6.69,0,0,1,5-1.85,6.57,6.57,0,0,1,4.93,1.85,6.77,6.77,0,0,1,0,9.19A6.53,6.53,0,0,1,69.58,43.12Z" transform="translate(-52.62 -30.23)"/><path class="cls-1" d="M128.62,75.06a26.63,26.63,0,0,1-1.8,10A21.45,21.45,0,0,1,114.4,97.38,25,25,0,0,1,105.21,99a26.86,26.86,0,0,1-9.15-1.51A20.09,20.09,0,0,1,83.93,85.82,25.81,25.81,0,0,1,82.18,76,27.52,27.52,0,0,1,84,65.73,21.06,21.06,0,0,1,96.4,53.45a25.84,25.84,0,0,1,9.19-1.61,26.94,26.94,0,0,1,9.15,1.52A20.71,20.71,0,0,1,122,57.77,19.86,19.86,0,0,1,126.87,65,26.7,26.7,0,0,1,128.62,75.06Zm-13,.48a22.58,22.58,0,0,0-.86-6.64,12.82,12.82,0,0,0-2.27-4.45,8.7,8.7,0,0,0-3.32-2.51,9.79,9.79,0,0,0-3.89-.81,10.33,10.33,0,0,0-3.79.71,8.34,8.34,0,0,0-3.22,2.37A12.35,12.35,0,0,0,96,68.62a23.66,23.66,0,0,0-.86,6.92A21.25,21.25,0,0,0,96,81.93a12.35,12.35,0,0,0,2.32,4.41,9.71,9.71,0,0,0,3.32,2.56,9,9,0,0,0,3.83.85,10.18,10.18,0,0,0,3.8-.71,8.14,8.14,0,0,0,3.22-2.41,12.89,12.89,0,0,0,2.27-4.41A22.4,22.4,0,0,0,115.64,75.54Z" transform="translate(-52.62 -30.23)"/><path class="cls-1" d="M180.05,75.54a28.1,28.1,0,0,1-1.61,9.76A22.09,22.09,0,0,1,174,92.74a18.94,18.94,0,0,1-6.73,4.69A21.68,21.68,0,0,1,158.82,99a19,19,0,0,1-7.59-1.37,17.12,17.12,0,0,1-5.49-3.84h-.38L144.5,98h-9.1V30.33h12.52V56.49a17.28,17.28,0,0,1,5.54-3.42,18.63,18.63,0,0,1,6.78-1.23q9.28,0,14.55,6.26T180.05,75.54Zm-13,.28q0-7-2.75-10.66a9.16,9.16,0,0,0-7.77-3.65,9.93,9.93,0,0,0-4.93,1.28,12.76,12.76,0,0,0-3.6,2.89V86.44a9.88,9.88,0,0,0,3.18,2.37,9.25,9.25,0,0,0,4.12.94,11.77,11.77,0,0,0,4.41-.85,10.92,10.92,0,0,0,3.79-2.56,12,12,0,0,0,2.6-4.31A18.26,18.26,0,0,0,167.06,75.82Z" transform="translate(-52.62 -30.23)"/><path class="cls-2" d="M192,42a4.43,4.43,0,0,1-3.18-1.23,4.26,4.26,0,0,1-1.27-3.22,4.42,4.42,0,0,1,1.27-3.27A4.35,4.35,0,0,1,192,33,4.5,4.5,0,0,1,195,34.21a4.22,4.22,0,0,1,1.37,3.32,4.17,4.17,0,0,1-1.32,3.27A4.55,4.55,0,0,1,192,42Zm-3.32,56V53.45h6.64V98Z" transform="translate(-52.62 -30.23)"/><path class="cls-2" d="M243.09,76.2H211.25v.85q0,7.88,4.26,12.23t11.66,4.36a34,34,0,0,0,6.16-.52,30.4,30.4,0,0,0,5.88-1.75l1.42,4.92a31.14,31.14,0,0,1-6.21,1.85,37.93,37.93,0,0,1-7.54.71,28.07,28.07,0,0,1-8.71-1.32,19,19,0,0,1-12-11.28,27.28,27.28,0,0,1-1.8-10.43,28.22,28.22,0,0,1,1.51-9.48,21.31,21.31,0,0,1,4.22-7.25,18.11,18.11,0,0,1,6.54-4.59,21.87,21.87,0,0,1,8.58-1.62,18.72,18.72,0,0,1,7.34,1.38,16.21,16.21,0,0,1,5.64,3.93,17.62,17.62,0,0,1,3.65,6.16,23.53,23.53,0,0,1,1.28,8Zm-6.82-4.93a18.75,18.75,0,0,0-.67-5.07,12.73,12.73,0,0,0-2-4.26A9.78,9.78,0,0,0,230,59a11.48,11.48,0,0,0-5.21-1.09,12.17,12.17,0,0,0-9.05,3.6,16.33,16.33,0,0,0-4.31,9.86Z" transform="translate(-52.62 -30.23)"/><path class="cls-2" d="M256.63,98H250V53.45h5l1,6.16a28.77,28.77,0,0,1,7-4.92,18.73,18.73,0,0,1,8.39-1.81q6.82,0,10.71,3.8T286,67.29V98h-6.64V68.52a11.54,11.54,0,0,0-2.27-7.34q-2.28-2.9-7.59-2.89A15.2,15.2,0,0,0,262.8,60a20.23,20.23,0,0,0-6.17,4.69Z" transform="translate(-52.62 -30.23)"/><path class="cls-2" d="M325.34,30.71H332V98h-5.49l-.86-4.55h-.19a17.15,17.15,0,0,1-5.49,4,18.82,18.82,0,0,1-7.68,1.37,18,18,0,0,1-7-1.42,18.49,18.49,0,0,1-6.17-4.26,20.92,20.92,0,0,1-4.4-7.16A28.23,28.23,0,0,1,293,75.82a31.05,31.05,0,0,1,1.37-9.48,20.41,20.41,0,0,1,4-7.25,17.49,17.49,0,0,1,6.35-4.59,21.21,21.21,0,0,1,8.49-1.62,20.26,20.26,0,0,1,6.58,1,16.06,16.06,0,0,1,5.55,3.22Zm0,32.51a14.68,14.68,0,0,0-4.93-3.84A13.34,13.34,0,0,0,314.53,58,16.21,16.21,0,0,0,309,59a12.27,12.27,0,0,0-4.7,3,15.22,15.22,0,0,0-3.27,5.45,23.74,23.74,0,0,0-1.23,8.11A25.64,25.64,0,0,0,301,83.88a16,16,0,0,0,3.17,5.59,12.15,12.15,0,0,0,4.5,3.17,13.82,13.82,0,0,0,5.17,1,14,14,0,0,0,6.73-1.52,13.32,13.32,0,0,0,4.74-4.26Z" transform="translate(-52.62 -30.23)"/><path class="cls-2" d="M380.3,75.25a29.1,29.1,0,0,1-1.61,10,21.52,21.52,0,0,1-4.46,7.44,18.57,18.57,0,0,1-6.68,4.6,21.56,21.56,0,0,1-8.2,1.56,22.56,22.56,0,0,1-8.24-1.47A17.57,17.57,0,0,1,344.57,93a20.82,20.82,0,0,1-4.36-7.1,27,27,0,0,1-1.61-9.72,27.75,27.75,0,0,1,1.66-10,21.49,21.49,0,0,1,4.5-7.35,18.44,18.44,0,0,1,6.68-4.5,22.38,22.38,0,0,1,8.29-1.52,22.93,22.93,0,0,1,8.15,1.43,17.46,17.46,0,0,1,6.54,4.26,20.17,20.17,0,0,1,4.32,7A27.49,27.49,0,0,1,380.3,75.25Zm-6.92.48a24.15,24.15,0,0,0-1.18-8,16,16,0,0,0-3.13-5.5,12,12,0,0,0-4.46-3.13,13.92,13.92,0,0,0-5.16-1,14.38,14.38,0,0,0-5.17.95,11.63,11.63,0,0,0-4.45,3,15.32,15.32,0,0,0-3.13,5.45,24.81,24.81,0,0,0-1.18,8.2A25.23,25.23,0,0,0,346.7,84a15.34,15.34,0,0,0,3.18,5.55,12.13,12.13,0,0,0,4.55,3.12,14.1,14.1,0,0,0,5.21,1,14.84,14.84,0,0,0,5.12-.9,11,11,0,0,0,4.4-3,15.15,15.15,0,0,0,3.08-5.55A26.84,26.84,0,0,0,373.38,75.73Z" transform="translate(-52.62 -30.23)"/></svg>