<svg id="Layer_1" data-name="Layer 1" xmlns="http://www.w3.org/2000/svg" viewBox="0 0 335.84 78.65"><defs><style>.cls-1{fill:#f9a42b;}.cls-2{fill: white;}</style></defs><path class="cls-1" d="M81.64,62.14c0,.5,0,1.18-.07,2a22.72,22.72,0,0,1-.4,2.88q-1.74,9.09-2.45,12.8t-2.8,11.8a28.45,28.45,0,0,1-3.2,7.54,28,28,0,0,1-5.29,6.36A26.72,26.72,0,0,1,60.78,110a18,18,0,0,1-7.56,1.54,19.24,19.24,0,0,1-5.75-.71A9.19,9.19,0,0,1,44.06,109a5.59,5.59,0,0,1-1.66-2.44A8.6,8.6,0,0,1,42,104a5.74,5.74,0,0,1,1.66-4.07A5.81,5.81,0,0,1,48,98.15a6.14,6.14,0,0,1,3.69,1.12A11.23,11.23,0,0,1,54.35,102a18.9,18.9,0,0,1,1.95,3.43c.57,1.26,1,2.25,1.32,3a35.62,35.62,0,0,0,2.55-5.86,92.19,92.19,0,0,0,2.54-9.34q1.62-7.14,2.86-13.3T67.88,68c.11-.6.23-1.34.38-2.21a14.88,14.88,0,0,0,.22-2.33,4,4,0,0,0-1-3,4.86,4.86,0,0,0-3.5-1,9.17,9.17,0,0,0-2.68.42c-.92.27-1.71.52-2.37.73l.87-3.56c2.13-.86,4.23-1.61,6.3-2.23a20.26,20.26,0,0,1,5.7-.92c3.14,0,5.56.75,7.27,2.27A7.5,7.5,0,0,1,81.64,62.14Zm4.55-22a6.71,6.71,0,0,1-2.28,5.11,8.16,8.16,0,0,1-11,0,6.69,6.69,0,0,1-2.29-5.11A6.78,6.78,0,0,1,73,35.05a8.1,8.1,0,0,1,11,0A6.81,6.81,0,0,1,86.19,40.19Z" transform="translate(-41.96 -32.92)"/><path class="cls-1" d="M131.64,70.39a24.54,24.54,0,0,1-1.89,9.52,23.52,23.52,0,0,1-5.37,7.89,26.19,26.19,0,0,1-8.79,5.55,31.06,31.06,0,0,1-11.31,2q-8.4,0-13.58-4.48T85.53,78.6a24.26,24.26,0,0,1,2-9.75A24,24,0,0,1,93,61a25.5,25.5,0,0,1,8.53-5.19,30.75,30.75,0,0,1,10.94-1.91q8.91,0,14.07,4.36T131.64,70.39Zm-13.89-4.46q0-4.62-1.56-6.79A5.22,5.22,0,0,0,111.67,57a7.9,7.9,0,0,0-5.57,2.42A17.36,17.36,0,0,0,102,66.52,41.17,41.17,0,0,0,100,75a63,63,0,0,0-.59,8.15q0,4.78,1.57,6.93a5.32,5.32,0,0,0,4.58,2.15,7.31,7.31,0,0,0,5.61-2.64,19.38,19.38,0,0,0,3.75-6.52A43.8,43.8,0,0,0,117,74.67,56.53,56.53,0,0,0,117.75,65.93Z" transform="translate(-41.96 -32.92)"/><path class="cls-1" d="M181.57,69.09a28.76,28.76,0,0,1-1.82,10.2,23.52,23.52,0,0,1-5.21,8.31A24.9,24.9,0,0,1,166,93.29a28.84,28.84,0,0,1-11,2,42.28,42.28,0,0,1-4.31-.31,22.89,22.89,0,0,1-5.09-1.11,20.27,20.27,0,0,1-5.35-2.8,17.48,17.48,0,0,1-4.4-4.74l9.92-42.56c.1-.45.18-.87.23-1.26a6.7,6.7,0,0,0,.08-1,4.33,4.33,0,0,0-.49-2.17,3.64,3.64,0,0,0-1.4-1.38,7.51,7.51,0,0,0-2.16-.71c-.83-.16-1.78-.29-2.87-.4l.72-2.92,20.81-1,.43.63-6,25.59h.28c.6-.5,1.26-1,2-1.52a24.36,24.36,0,0,1,2.84-1.72,18.75,18.75,0,0,1,3.54-1.32,14.77,14.77,0,0,1,4-.61q6.87,0,10.32,4T181.57,69.09Zm-14.14-.16a22,22,0,0,0-.27-3.57,8.22,8.22,0,0,0-1-2.83,5,5,0,0,0-1.91-1.89,6.13,6.13,0,0,0-3-.67,7.16,7.16,0,0,0-3.83,1.12,16.28,16.28,0,0,0-3.24,2.63l-5,22a6.88,6.88,0,0,0,.28,1.93,6.43,6.43,0,0,0,1.06,2.06,6.3,6.3,0,0,0,1.74,1.69A5.1,5.1,0,0,0,155,92a7.63,7.63,0,0,0,5-2A15.75,15.75,0,0,0,164,84.8a32.06,32.06,0,0,0,2.61-7.32A39.54,39.54,0,0,0,167.43,68.93Z" transform="translate(-41.96 -32.92)"/><path class="cls-2" d="M204.89,89.74l-.59,2.52a51.41,51.41,0,0,1-5.81,2,14.92,14.92,0,0,1-3.71.57A6.33,6.33,0,0,1,190,93.23a5.61,5.61,0,0,1-1.58-4,12.71,12.71,0,0,1,.16-1.9c.11-.66.28-1.49.52-2.49L193.31,68c.21-.92.41-1.91.61-3a14.73,14.73,0,0,0,.29-2.69,4.23,4.23,0,0,0-.73-2.94,4.28,4.28,0,0,0-3-.74,13.38,13.38,0,0,0-2.31.28c-1,.18-1.68.34-2.18.47l.59-2.52a39.28,39.28,0,0,1,5.52-2.06,15.93,15.93,0,0,1,3.87-.67c2.16,0,3.72.52,4.7,1.54a5.83,5.83,0,0,1,1.46,4.16,15.07,15.07,0,0,1-.16,1.93,20.74,20.74,0,0,1-.47,2.45L197.33,81c-.26,1-.49,2-.69,3a13.51,13.51,0,0,0-.29,2.44,3.84,3.84,0,0,0,1,3.08,5.13,5.13,0,0,0,3.25.83,16.83,16.83,0,0,0,2.14-.2A11.1,11.1,0,0,0,204.89,89.74Zm2.8-50.5a5.82,5.82,0,0,1-1.46,3.93,4.67,4.67,0,0,1-7.11.08,5.3,5.3,0,0,1-1.46-3.66,5.51,5.51,0,0,1,1.46-3.79,4.54,4.54,0,0,1,3.48-1.61,4.78,4.78,0,0,1,3.67,1.52A5,5,0,0,1,207.69,39.24Z" transform="translate(-41.96 -32.92)"/><path class="cls-2" d="M243.87,62.39a10.6,10.6,0,0,1-2.63,7.2,17.79,17.79,0,0,1-7.64,4.78,58.65,58.65,0,0,1-7.42,2.18c-2.5.55-5.27,1-8.29,1.38q0,6.24,2.31,9.54A7.75,7.75,0,0,0,227,90.76a12.44,12.44,0,0,0,7-2,24.5,24.5,0,0,0,5.94-5.88l2.25,1.65a24.69,24.69,0,0,1-7.9,7.7,18.67,18.67,0,0,1-9.83,2.89q-7,0-10.68-3.92c-2.46-2.6-3.69-6.31-3.69-11.1a29,29,0,0,1,1.56-9.51,27.73,27.73,0,0,1,4.56-8.28,22.49,22.49,0,0,1,7.16-5.92,19.62,19.62,0,0,1,9.38-2.26q5.69,0,8.43,2.32A7.38,7.38,0,0,1,243.87,62.39Zm-7.27-1a5.55,5.55,0,0,0-.43-2.42,3.07,3.07,0,0,0-1.11-1.32,3.45,3.45,0,0,0-1.5-.59,10.84,10.84,0,0,0-1.62-.12q-4.74,0-8.74,5.2a26.64,26.64,0,0,0-5.08,13c1.84-.26,3.92-.64,6.24-1.12a23.46,23.46,0,0,0,5.77-1.91A11.84,11.84,0,0,0,235,67.74,12,12,0,0,0,236.6,61.42Z" transform="translate(-41.96 -32.92)"/><path class="cls-2" d="M289.93,89.46,289.34,92c-2.38.94-4.23,1.64-5.55,2.07a12.83,12.83,0,0,1-4,.65A6.32,6.32,0,0,1,275,93.07a5.58,5.58,0,0,1-1.59-4,13.78,13.78,0,0,1,.16-1.92c.11-.69.28-1.52.52-2.47L278,69.89c.29-1.13.52-2.16.69-3.08a13,13,0,0,0,.26-2.22,6.44,6.44,0,0,0-1.26-4.19A4.52,4.52,0,0,0,274,58.86a11.75,11.75,0,0,0-5.37,1.58A20.15,20.15,0,0,0,263,65l-6.74,29h-7.38l5.92-25.61c.14-.64.33-1.55.58-2.75a14.9,14.9,0,0,0,.37-2.91,4.27,4.27,0,0,0-.75-3,4.37,4.37,0,0,0-3-.75,10.65,10.65,0,0,0-2.23.3c-.9.19-1.6.36-2.1.49l.59-2.53a41.74,41.74,0,0,1,5.48-2,15.36,15.36,0,0,1,4.09-.67c2.09,0,3.58.56,4.48,1.7a7.69,7.69,0,0,1,1.43,4.7H264a50.52,50.52,0,0,1,7.47-5.16,15,15,0,0,1,7.16-1.68,7.46,7.46,0,0,1,8,8,24,24,0,0,1-.22,2.53,24.45,24.45,0,0,1-.69,3.59l-3.32,12.69c-.24.85-.47,1.81-.69,2.91a13.15,13.15,0,0,0-.34,2.55,3.81,3.81,0,0,0,1,3.06,5.13,5.13,0,0,0,3.24.81,13,13,0,0,0,2.15-.26A13.94,13.94,0,0,0,289.93,89.46Z" transform="translate(-41.96 -32.92)"/><path class="cls-2" d="M319.2,88.63h-.28l-2.25,2a20.48,20.48,0,0,1-2.88,2.12,21.34,21.34,0,0,1-3.49,1.81,10.68,10.68,0,0,1-3.92.64,10.8,10.8,0,0,1-9-4.13c-2.17-2.76-3.26-6.5-3.26-11.25a26.82,26.82,0,0,1,1.76-9.6,28,28,0,0,1,4.8-8.22,23.14,23.14,0,0,1,7.13-5.63,18.69,18.69,0,0,1,8.71-2.16,21.27,21.27,0,0,1,5.41.71,18,18,0,0,1,4.42,1.74l3.09-13.42c.15-.71.27-1.27.33-1.66a7.54,7.54,0,0,0,.1-1.3,3.53,3.53,0,0,0-.57-2.17,3.29,3.29,0,0,0-1.6-1.11,9.19,9.19,0,0,0-2.61-.47c-1.1-.08-2.1-.18-3-.28l.55-2.41,16-.87.39.59L328.11,80.85c-.21.87-.43,1.87-.65,3a13.73,13.73,0,0,0-.34,2.55,3.92,3.92,0,0,0,.95,3.06,5,5,0,0,0,3.2.81A13.38,13.38,0,0,0,333.4,90a12.38,12.38,0,0,0,2.13-.51L334.94,92a39.65,39.65,0,0,1-5.5,2.09,15.65,15.65,0,0,1-4,.59,6.59,6.59,0,0,1-4.53-1.48A5.82,5.82,0,0,1,319.2,88.63Zm5.61-25.18a6.16,6.16,0,0,0-.59-2.23,8,8,0,0,0-1.3-2,7.1,7.1,0,0,0-2.35-1.64,8.22,8.22,0,0,0-3.42-.65,9.86,9.86,0,0,0-5.75,1.89,18.27,18.27,0,0,0-4.77,5.06,26.5,26.5,0,0,0-3.16,7.34,32.11,32.11,0,0,0-1.18,8.59,30,30,0,0,0,.27,4.27,11.42,11.42,0,0,0,1.07,3.44,5.66,5.66,0,0,0,2.13,2.31,6.92,6.92,0,0,0,3.67.85,10.44,10.44,0,0,0,4.72-1.3,22.76,22.76,0,0,0,5.66-4.55Z" transform="translate(-41.96 -32.92)"/><path class="cls-2" d="M377.81,69.69A29,29,0,0,1,376.23,79a24.53,24.53,0,0,1-4.58,8.18A23.23,23.23,0,0,1,364.33,93a21.55,21.55,0,0,1-9.93,2.19A14.11,14.11,0,0,1,343.76,91q-4.1-4.23-4.09-11.39a27.34,27.34,0,0,1,6.4-17.78,22.39,22.39,0,0,1,7.32-5.55,21.4,21.4,0,0,1,9.46-2.12q7,0,11,4.29T377.81,69.69Zm-8.05-1.5q0-5.61-2-8.42A6.61,6.61,0,0,0,362,57a10.64,10.64,0,0,0-6.18,2,15.81,15.81,0,0,0-5,6.56,30.56,30.56,0,0,0-2.37,7.65,44.59,44.59,0,0,0-.75,7.77c0,3.77.66,6.62,2,8.56a6.64,6.64,0,0,0,5.9,2.9,9.66,9.66,0,0,0,6.24-2.21,16.78,16.78,0,0,0,4.42-5.61A30.92,30.92,0,0,0,368.85,77,42.72,42.72,0,0,0,369.76,68.19Z" transform="translate(-41.96 -32.92)"/></svg>