<svg class="svg-icon" style="width: 1em; height: 1em;vertical-align: middle;fill: currentColor;overflow: hidden;" viewBox="0 0 1024 1024" version="1.1" xmlns="http://www.w3.org/2000/svg"><path d="M359.3 370.6L246.1 483.7c-12.5 12.5-12.5 32.8 0 45.3 6.2 6.2 14.4 9.4 22.6 9.4s16.4-3.1 22.6-9.4l90.5-90.5c12.5-12.5 12.5-32.8 0-45.3l-22.5-22.6zM585.5 596.9L472.4 710c-12.5 12.5-12.5 32.8 0 45.3 6.2 6.2 14.4 9.4 22.6 9.4 8.2 0 16.4-3.1 22.6-9.4l90.5-90.5c12.5-12.5 12.5-32.8 0-45.3l-22.6-22.6zM473.1 484.4L360 597.6c-12.5 12.5-12.5 32.8 0 45.3 6.2 6.2 14.4 9.4 22.6 9.4 8.2 0 16.4-3.1 22.6-9.4l90.5-90.5c12.5-12.5 12.5-32.8 0-45.3l-22.6-22.7z"  /><path d="M359 191.2L832.8 665l-181 181L178 372.3l181-181.1m0-90.5L110.1 349.6c-12.5 12.5-12.5 32.8 0 45.3l519 519c6.2 6.2 14.4 9.4 22.6 9.4s16.4-3.1 22.6-9.4l249-248.9L359 100.7z"  /></svg>