<svg class="svg-icon" style="width: 1em; height: 1em;vertical-align: middle;fill: currentColor;overflow: hidden;" viewBox="0 0 1024 1024" version="1.1" xmlns="http://www.w3.org/2000/svg"><path d="M621.568 104.448c7.296 0.554667 14.378667 1.834667 21.290667 4.352 18.773333 6.869333 34.176 21.546667 41.984 39.978667 3.328 7.850667 4.949333 16.042667 5.589333 24.533333 0.170667 6.442667 0.085333 12.928 0.085333 19.370667a29.312 29.312 0 0 1-9.386666 21.717333 30.08 30.08 0 0 1-43.392-2.730667 30.976 30.976 0 0 1-6.784-17.109333c-0.170667-6.314667 0.341333-12.586667-0.128-18.858667a12.928 12.928 0 0 0-12.288-11.648c-71.210667-1.834667-142.72-5.376-213.76 0.042667a12.928 12.928 0 0 0-11.648 12.288c-0.170667 5.418667-0.042667 10.837333-0.042667 16.298667a30.037333 30.037333 0 0 1-9.386667 21.717333 30.08 30.08 0 0 1-43.392-2.730667 30.634667 30.634667 0 0 1-6.784-17.109333c-0.170667-5.973333-0.042667-11.946667-0.042666-17.877333 0.170667-7.253333 1.109333-14.293333 3.242666-21.248 6.314667-20.224 21.589333-37.077333 41.088-45.312 7.893333-3.370667 16.085333-4.992 24.618667-5.674667 73.002667-1.834667 146.133333-1.834667 219.136 0z"  /><path d="M414.549333 598.784a25688.448 25688.448 0 0 1-304.042666-67.669333 112.042667 112.042667 0 0 1-36.309334-15.957334 76.458667 76.458667 0 0 1-30.336-40.789333 135.424 135.424 0 0 1-2.816-18.090667V329.728s1.792-17.152 4.906667-25.216c7.296-18.986667 21.546667-34.688 39.936-43.434667 9.514667-4.522667 30.122667-7.552 30.122667-7.552l789.973333-0.085333s19.498667 2.261333 28.629333 6.101333a79.36 79.36 0 0 1 43.434667 44.970667c3.114667 8.064 4.906667 25.216 4.906667 25.216v126.549333s-1.109333 12.16-2.816 18.048a76.202667 76.202667 0 0 1-30.378667 40.832 111.402667 111.402667 0 0 1-36.266667 15.957334c-101.12 23.594667-202.709333 45.013333-304.213333 66.944-0.085333 12.16-0.170667 24.362667-0.170667 36.522666a52.053333 52.053333 0 0 1-2.176 14.037334 48.938667 48.938667 0 0 1-27.392 30.208 51.456 51.456 0 0 1-16.384 3.754666c-33.408 0.853333-66.816 0.042667-100.224 0.042667a48.725333 48.725333 0 0 1-44.202666-29.525333 51.712 51.712 0 0 1-3.754667-16.426667c-0.341333-12.629333-0.426667-25.258667-0.426667-37.888z m134.912-52.352h-74.922666v76.544h74.922666v-76.544z m59.690667-8.96c97.536-20.266667 195.328-39.552 291.712-64.64a63.914667 63.914667 0 0 0 8.96-3.285333c6.144-2.858667 13.525333-14.933333 13.525333-14.933334l-0.085333-124.757333-17.749333-16.768-785.28-0.042667s-5.973333 0.597333-8.704 1.92c-6.357333 2.986667-10.88 16.298667-10.88 16.298667v122.752l0.128 2.133333s6.954667 10.154667 12.074666 12.757334a50.048 50.048 0 0 0 8.661334 3.456c1.706667 0.512 3.370667 0.896 5.077333 1.322666l288.298667 63.274667v-2.133333a48.981333 48.981333 0 0 1 29.568-44.245334c5.248-2.218667 10.709333-3.285333 16.384-3.754666 34.090667-0.853333 68.224-0.853333 102.314666 0a48.938667 48.938667 0 0 1 42.154667 29.525333c2.218667 5.248 3.285333 10.709333 3.712 16.384l0.128 4.736z"  /><path d="M934.186667 553.216a29.994667 29.994667 0 0 1 25.258666 20.437333c0.981333 3.072 1.450667 9.216 1.450667 9.216l-0.042667 251.989334s-2.005333 19.072-5.333333 28.117333a89.216 89.216 0 0 1-52.608 52.608c-9.045333 3.328-28.117333 5.333333-28.117333 5.333333H149.205333s-19.072-2.005333-28.117333-5.333333c-23.509333-8.618667-42.666667-27.306667-51.84-50.602667-3.797333-9.642667-6.101333-30.122667-6.101333-30.122666l-0.042667-251.989334s0.085333-3.456 0.64-6.186666a30.037333 30.037333 0 0 1 26.069333-23.466667 30.122667 30.122667 0 0 1 32.768 26.538667l0.170667 3.114666 0.085333 251.946667s8.234667 20.906667 18.773334 24.789333c2.944 1.066667 9.130667 1.706667 9.130666 1.706667l724.010667-0.085333s20.906667-8.234667 24.789333-18.773334c1.066667-2.944 1.706667-9.130667 1.706667-9.130666v-250.453334s0.469333-6.144 1.493333-9.216a29.866667 29.866667 0 0 1 28.330667-20.565333l3.114667 0.128z"  /></svg>